Coordinates
version=1
nRows=19
nColumns=38
inDegrees=no

Units are S.I. units (second, meters, Newtons, ...)
If the header above contains a line with 'inDegrees', this indicates whether rotational values are in degrees (yes) or radians (no).

endheader
time	pelvis_tilt	pelvis_list	pelvis_rotation	pelvis_tx	pelvis_ty	pelvis_tz	hip_flexion_r	hip_adduction_r	hip_rotation_r	knee_angle_r	ankle_angle_r	subtalar_angle_r	mtp_angle_r	hip_flexion_l	hip_adduction_l	hip_rotation_l	knee_angle_l	ankle_angle_l	subtalar_angle_l	mtp_angle_l	lumbar_extension	lumbar_bending	lumbar_rotation	arm_flex_r	arm_add_r	arm_rot_r	elbow_flex_r	pro_sup_r	wrist_flex_r	wrist_dev_r	arm_flex_l	arm_add_l	arm_rot_l	elbow_flex_l	pro_sup_l	wrist_flex_l	wrist_dev_l
0.25	-0.127831	0.0585277	-0.115701	1.02927	0.980777	-0.3176	0.753047	0.141245	0.288513	-0.429496	0.357713	-0.0164164	0.00649309	-0.282769	0.146953	-0.059526	-1.06899	-0.320659	-0.0119736	-0.0305468	-0.0130624	-0.0174846	-0.327304	-0.928703	-0.35387	-0.190949	1.42292	2.1514	0.0274722	0.00618116	-0.432829	-0.307644	0.0673206	2.21214	2.18998	0.1	-0.0814773
0.258333	-0.117456	0.0589299	-0.127766	1.02837	0.976867	-0.316724	0.728829	0.143378	0.272972	-0.431073	0.310657	-0.0164164	0.00649309	-0.258129	0.126111	-0.110043	-1.19807	-0.307751	-0.0119736	-0.0305468	-0.0284774	-0.0181995	-0.307768	-0.910961	-0.351468	-0.184381	1.42938	2.14433	0.0274722	0.00618116	-0.438709	-0.294832	0.0652064	2.19624	2.17819	0.1	-0.0814773
0.266667	-0.10901	0.0578828	-0.13935	1.02689	0.972275	-0.316054	0.709726	0.14903	0.259825	-0.447482	0.267805	-0.0164164	0.00649309	-0.227641	0.104926	-0.153212	-1.32343	-0.292376	-0.0119736	-0.0305468	-0.0433392	-0.0172396	-0.285633	-0.890877	-0.349812	-0.176349	1.43701	2.13829	0.0274722	0.00618116	-0.442793	-0.282565	0.0640185	2.1763	2.16834	0.1	-0.0814773
0.275	-0.102497	0.0553959	-0.150451	1.02485	0.967024	-0.315549	0.695648	0.158158	0.249091	-0.478493	0.229655	-0.0164164	0.00649309	-0.191256	0.0834372	-0.189032	-1.44497	-0.274605	-0.0119736	-0.0305468	-0.0576357	-0.014624	-0.260912	-0.868423	-0.348905	-0.166851	1.44578	2.13328	0.0274722	0.00618116	-0.445092	-0.270858	0.0637654	2.1523	2.16041	0.1	-0.0814773
0.283333	-0.0979239	0.0515067	-0.161071	1.02231	0.961188	-0.315184	0.68626	0.170604	0.240802	-0.523275	0.197644	-0.0164164	0.00649309	-0.14884	0.0617553	-0.217528	-1.56242	-0.254656	-0.0119736	-0.0305468	-0.0713186	-0.010412	-0.233666	-0.843517	-0.34876	-0.15588	1.45563	2.12929	0.0274722	0.00618116	-0.445666	-0.259749	0.0644568	2.12418	2.15427	0.1	-0.0814773
0.291667	-0.0952974	0.0462965	-0.171213	1.01931	0.954949	-0.314946	0.680811	0.186008	0.234983	-0.580021	0.17415	-0.0164164	0.00649309	-0.100187	0.0400687	-0.238799	-1.67516	-0.232914	-0.0119736	-0.0305468	-0.0842743	-0.00472477	-0.204051	-0.816012	-0.349412	-0.143415	1.46644	2.12627	0.0274722	0.00618116	-0.444699	-0.249292	0.0660761	2.09193	2.14965	0.1	-0.0814773
0.3	-0.0945629	0.039911	-0.180867	1.01594	0.94861	-0.314826	0.67801	0.203727	0.231615	-0.645722	0.161965	-0.0164164	0.00649309	-0.0451217	0.0186555	-0.253039	-1.78221	-0.209886	-0.0119736	-0.0305468	-0.0963132	0.00222516	-0.172389	-0.785719	-0.350907	-0.129417	1.47807	2.12417	0.0274722	0.00618116	-0.442585	-0.239556	0.0685412	2.05565	2.14611	0.1	-0.0814773
0.308333	-0.0955928	0.0325853	-0.189958	1.01227	0.942511	-0.314807	0.675999	0.222771	0.230613	-0.716248	0.163427	-0.0164164	0.00649309	0.0163276	-0.00208565	-0.260532	-1.8822	-0.186098	-0.0119736	-0.0305468	-0.107229	0.0100887	-0.139255	-0.752461	-0.35328	-0.113836	1.4904	2.12287	0.0274722	0.00618116	-0.439982	-0.230626	0.0716725	2.01574	2.14304	0.1	-0.0814773
0.316667	-0.0980989	0.0246886	-0.198286	1.00842	0.936897	-0.314876	0.672512	0.241815	0.231812	-0.786748	0.179583	-0.0164164	0.00649309	0.0837605	-0.0215971	-0.261632	-1.97345	-0.16199	-0.0119736	-0.0305468	-0.116834	0.0183478	-0.105534	-0.716144	-0.356506	-0.0966356	1.50336	2.12218	0.0274722	0.00618116	-0.437823	-0.222616	0.0751802	1.97301	2.1398	0.1	-0.0814773
0.325	-0.101625	0.0167645	-0.205488	1.00447	0.931888	-0.31503	0.665196	0.259265	0.234991	-0.852298	0.209744	-0.0164164	0.00649309	0.156319	-0.0391255	-0.256772	-2.05407	-0.137855	-0.0119736	-0.0305468	-0.12499	0.0262927	-0.0724228	-0.676842	-0.360455	-0.0778354	1.51699	2.12174	0.0274722	0.00618116	-0.437254	-0.215683	0.0786741	1.92876	2.13576	0.1	-0.0814773
0.333333	-0.105618	0.00954418	-0.211051	1.00058	0.927558	-0.31528	0.652018	0.273399	0.239892	-0.908583	0.25154	-0.0164164	0.00649309	0.232743	-0.0537129	-0.246509	-2.12219	-0.113848	-0.0119736	-0.0305468	-0.131562	0.0330274	-0.0413195	-0.634853	-0.364855	-0.0575468	1.53144	2.12106	0.0274722	0.00618116	-0.439507	-0.210033	0.0816918	1.88477	2.13044	0.1	-0.0814773
0.341667	-0.109526	0.00389759	-0.214398	0.996911	0.924017	-0.315631	0.6316	0.282556	0.246211	-0.952401	0.301382	-0.0164164	0.00649309	0.311501	-0.0642773	-0.23159	-2.17615	-0.0900516	-0.0119736	-0.0305468	-0.136384	0.0375464	-0.0136403	-0.590725	-0.36929	-0.0360041	1.54692	2.11948	0.0274722	0.00618116	-0.445738	-0.205901	0.0837359	1.84314	2.12367	0.1	-0.0814773
0.35	-0.112909	0.000721016	-0.215015	0.993653	0.921408	-0.316063	0.603355	0.285347	0.25356	-0.981874	0.355068	-0.0164164	0.00649309	0.390945	-0.069788	-0.213013	-2.21468	-0.0665562	-0.0119736	-0.0305468	-0.139251	0.0388765	0.00942279	-0.545247	-0.373251	-0.0135774	1.56367	2.11641	0.0274722	0.00618116	-0.456859	-0.203505	0.0843194	1.80603	2.11571	0.1	-0.0814773
0.358333	-0.115527	0.000775803	-0.212581	0.990972	0.919857	-0.316538	0.56743	0.280847	0.261405	-0.996358	0.40828	-0.0164164	0.00649309	0.469438	-0.0694982	-0.192041	-2.23701	-0.0434876	-0.0119736	-0.0305468	-0.139956	0.0362462	0.0271332	-0.499412	-0.376212	0.00922435	1.58192	2.11139	0.0274722	0.00618116	-0.473403	-0.202987	0.0830261	1.77538	2.10732	0.1	-0.0814773
0.366667	-0.117339	0.00451851	-0.207048	0.988994	0.91943	-0.317021	0.524492	0.268708	0.269017	-0.996162	0.456893	-0.0164164	0.00649309	0.545429	-0.063144	-0.170142	-2.24293	-0.0209865	-0.0119736	-0.0305468	-0.13835	0.0292217	0.0393662	-0.454395	-0.377713	0.0317501	1.60182	2.10426	0.0274722	0.00618116	-0.495447	-0.204378	0.0795882	1.75262	2.09963	0.1	-0.0814773
0.375	-0.118466	0.0120845	-0.198619	0.987799	0.92013	-0.3175	0.475453	0.249188	0.27548	-0.982219	0.49709	-0.0164164	0.00649309	0.617504	-0.0509728	-0.14882	-2.23275	0.000830385	-0.0119736	-0.0305468	-0.134425	0.0177848	0.0466262	-0.411512	-0.377437	0.0532175	1.6235	2.09516	0.0274722	0.00618116	-0.522611	-0.207584	0.0739611	1.73851	2.09374	0.1	-0.0814773
0.383333	-0.119113	0.0232764	-0.187672	0.987423	0.921915	-0.317986	0.421213	0.223058	0.279709	-0.955786	0.525373	-0.0164164	0.00649309	0.684407	-0.033654	-0.129439	-2.20724	0.0219006	-0.0119736	-0.0305468	-0.128376	0.00228376	0.0499281	-0.372156	-0.375245	0.0727541	1.64706	2.08455	0.0274722	0.00618116	-0.554123	-0.212407	0.0663611	1.73309	2.09047	0.1	-0.0814773
0.391667	-0.119486	0.0376721	-0.17464	0.987861	0.92472	-0.318497	0.362518	0.191413	0.280497	-0.918241	0.538587	-0.0164164	0.00649309	0.745058	-0.012079	-0.113067	-2.16746	0.0422067	-0.0119736	-0.0305468	-0.120579	-0.0167053	0.0505265	-0.33764	-0.371194	0.089553	1.67255	2.073	0.0274722	0.00618116	-0.588979	-0.218568	0.0571983	1.73576	2.09009	0.1	-0.0814773
0.4	-0.119756	0.0548094	-0.159895	0.989081	0.92846	-0.31905	0.299939	0.155434	0.2766	-0.87095	0.534041	-0.0164164	0.00649309	0.798616	0.0128932	-0.100362	-2.11459	0.0617167	-0.0119736	-0.0305468	-0.111452	-0.0385984	0.0494701	-0.308856	-0.365555	0.103247	1.6998	2.06115	0.0274722	0.00618116	-0.626215	-0.225692	0.0468335	1.74545	2.09228	0.1	-0.0814773
